<?xml version="1.0" encoding="UTF-8"?>
<svg xmlns="http://www.w3.org/2000/svg" xmlns:xlink="http://www.w3.org/1999/xlink" viewBox="0 0 30 30" width="30px" height="30px">
<g id="surface335193">
<path style=" stroke:none;fill-rule:nonzero;fill:rgb(100%,100%,100%);fill-opacity:1;" d="M 15 30 C 6.714844 30 0 23.285156 0 15 C 0 6.714844 6.714844 0 15 0 C 23.285156 0 30 6.714844 30 15 C 30 23.285156 23.285156 30 15 30 Z M 15 30 "/>
<path style=" stroke:none;fill-rule:nonzero;fill:rgb(0%,0%,0%);fill-opacity:1;" d="M 11.148438 5.503906 C 10.890625 5.496094 10.644531 5.617188 10.492188 5.828125 C 10.339844 6.039062 10.304688 6.308594 10.398438 6.554688 C 10.398438 6.554688 10.929688 7.902344 12.277344 8.742188 C 11.960938 8.835938 11.445312 9.101562 10.972656 9.808594 C 10.683594 9.71875 10.429688 9.621094 10.234375 9.527344 C 9.886719 9.363281 9.667969 9.207031 9.542969 9.101562 C 9.421875 9 9.425781 8.992188 9.425781 8.992188 C 9.277344 8.796875 9.046875 8.679688 8.800781 8.679688 L 7.25 8.679688 C 6.972656 8.675781 6.710938 8.820312 6.570312 9.0625 C 6.429688 9.304688 6.429688 9.601562 6.570312 9.84375 C 6.710938 10.085938 6.972656 10.230469 7.25 10.226562 L 8.488281 10.226562 C 8.519531 10.257812 8.511719 10.257812 8.546875 10.289062 C 8.769531 10.476562 9.101562 10.707031 9.566406 10.925781 C 10.5 11.371094 11.964844 11.777344 14.175781 11.777344 C 14.226562 11.777344 14.28125 11.773438 14.335938 11.761719 C 14.558594 11.769531 14.765625 11.777344 15.011719 11.777344 C 15.253906 11.777344 15.453125 11.769531 15.667969 11.765625 C 15.71875 11.773438 15.773438 11.777344 15.824219 11.777344 C 18.035156 11.777344 19.5 11.371094 20.433594 10.925781 C 20.898438 10.707031 21.230469 10.476562 21.453125 10.289062 C 21.488281 10.257812 21.480469 10.257812 21.511719 10.226562 L 22.75 10.226562 C 23.027344 10.230469 23.289062 10.085938 23.429688 9.84375 C 23.570312 9.601562 23.570312 9.304688 23.429688 9.0625 C 23.289062 8.820312 23.027344 8.675781 22.75 8.679688 L 21.199219 8.679688 C 20.953125 8.679688 20.722656 8.796875 20.574219 8.992188 C 20.574219 8.992188 20.578125 9 20.457031 9.101562 C 20.332031 9.207031 20.113281 9.363281 19.765625 9.527344 C 19.566406 9.625 19.308594 9.71875 19.011719 9.8125 C 18.53125 9.097656 18.027344 8.832031 17.726562 8.738281 C 19.070312 7.898438 19.601562 6.554688 19.601562 6.554688 C 19.691406 6.320312 19.660156 6.058594 19.523438 5.847656 C 19.382812 5.640625 19.15625 5.511719 18.90625 5.503906 C 18.566406 5.492188 18.257812 5.703125 18.148438 6.023438 C 18.148438 6.023438 17.757812 7.195312 16.460938 7.652344 C 16.058594 7.328125 15.554688 7.128906 15 7.128906 C 14.445312 7.128906 13.941406 7.328125 13.539062 7.652344 C 12.242188 7.195312 11.851562 6.023438 11.851562 6.023438 C 11.75 5.722656 11.46875 5.515625 11.148438 5.503906 Z M 7.996094 11.777344 C 7.921875 11.78125 7.851562 11.792969 7.78125 11.816406 L 5.457031 12.59375 C 5.050781 12.726562 4.828125 13.167969 4.964844 13.574219 C 5.101562 13.980469 5.539062 14.199219 5.945312 14.0625 L 8.003906 13.378906 C 8.078125 13.414062 8.296875 13.511719 8.484375 13.59375 C 8.25 14.1875 8.027344 15 8.027344 15.984375 C 8.027344 17.164062 8.265625 18.203125 8.640625 19.101562 L 8.148438 20.578125 L 6.046875 21.980469 C 5.8125 22.132812 5.675781 22.398438 5.691406 22.679688 C 5.707031 22.957031 5.875 23.207031 6.125 23.332031 C 6.378906 23.453125 6.675781 23.429688 6.90625 23.273438 L 9.230469 21.722656 C 9.375 21.625 9.480469 21.484375 9.535156 21.320312 L 9.679688 20.886719 C 10.96875 22.550781 12.667969 23.402344 13.449219 23.402344 C 14.023438 23.402344 14.226562 22.953125 14.226562 22.625 L 14.226562 15.652344 C 14.226562 15.222656 14.570312 14.878906 15 14.878906 C 15.429688 14.878906 15.773438 15.222656 15.773438 15.652344 L 15.773438 22.625 C 15.773438 22.953125 15.976562 23.402344 16.550781 23.402344 C 17.332031 23.402344 19.03125 22.550781 20.320312 20.886719 L 20.464844 21.320312 C 20.519531 21.484375 20.625 21.625 20.769531 21.722656 L 23.09375 23.273438 C 23.324219 23.429688 23.621094 23.453125 23.875 23.332031 C 24.125 23.207031 24.292969 22.957031 24.308594 22.679688 C 24.324219 22.398438 24.1875 22.132812 23.953125 21.980469 L 21.851562 20.578125 L 21.359375 19.101562 C 21.734375 18.203125 21.972656 17.164062 21.972656 15.984375 C 21.972656 15 21.75 14.1875 21.515625 13.59375 C 21.703125 13.511719 21.921875 13.414062 21.996094 13.378906 L 24.054688 14.0625 C 24.316406 14.152344 24.605469 14.089844 24.8125 13.90625 C 25.019531 13.722656 25.113281 13.445312 25.058594 13.171875 C 25.003906 12.902344 24.808594 12.679688 24.542969 12.59375 L 22.21875 11.816406 C 22.144531 11.792969 22.070312 11.78125 21.992188 11.777344 C 21.863281 11.773438 21.742188 11.804688 21.628906 11.859375 C 21.628906 11.859375 19.386719 12.945312 16.949219 13.246094 C 16.347656 13.292969 15.710938 13.328125 15 13.328125 C 14.289062 13.328125 13.652344 13.292969 13.050781 13.246094 C 10.613281 12.945312 8.371094 11.859375 8.371094 11.859375 C 8.257812 11.800781 8.125 11.773438 7.996094 11.777344 Z M 7.996094 11.777344 "/>
</g>
</svg>
