<?xml version="1.0" encoding="UTF-8"?>
<svg xmlns="http://www.w3.org/2000/svg" xmlns:xlink="http://www.w3.org/1999/xlink" viewBox="0 0 30 30" width="30px" height="30px">
<g id="surface332284">
<path style=" stroke:none;fill-rule:nonzero;fill:rgb(100%,100%,100%);fill-opacity:1;" d="M 15 30 C 6.714844 30 0 23.285156 0 15 C 0 6.714844 6.714844 0 15 0 C 23.285156 0 30 6.714844 30 15 C 30 23.285156 23.285156 30 15 30 Z M 15 30 "/>
<path style=" stroke:none;fill-rule:nonzero;fill:rgb(0%,0%,0%);fill-opacity:1;" d="M 19.214844 6.800781 C 18.792969 6.800781 18.121094 6.878906 17.480469 7.324219 C 16.84375 7.773438 16.324219 8.632812 16.308594 9.824219 C 16.304688 10.226562 16.226562 10.421875 16.132812 10.566406 C 16.035156 10.710938 15.878906 10.835938 15.59375 10.980469 C 15.027344 11.273438 14 11.546875 12.796875 12.191406 C 10.953125 13.175781 9.640625 14.527344 8.375 15.558594 C 7.316406 16.421875 6.339844 17.050781 5.078125 17.238281 L 5.050781 17.238281 C 4.972656 17.238281 4.898438 17.25 4.824219 17.269531 C 4.65625 17.289062 4.484375 17.300781 4.304688 17.300781 C 4.035156 17.296875 3.785156 17.4375 3.652344 17.667969 C 3.515625 17.902344 3.515625 18.1875 3.652344 18.421875 C 3.785156 18.652344 4.035156 18.792969 4.304688 18.789062 C 4.605469 18.789062 4.890625 18.765625 5.167969 18.730469 L 10.917969 18.730469 C 11.132812 18.808594 12.613281 19.34375 14.742188 19.449219 L 14.742188 22.332031 C 14.703125 22.574219 14.78125 22.820312 14.957031 22.992188 C 14.960938 22.992188 14.960938 22.992188 14.964844 22.996094 C 14.964844 23 14.96875 23 14.972656 23.003906 C 15.140625 23.167969 15.375 23.238281 15.605469 23.203125 L 17.726562 23.203125 C 17.992188 23.207031 18.242188 23.0625 18.378906 22.832031 C 18.515625 22.601562 18.515625 22.3125 18.378906 22.082031 C 18.242188 21.847656 17.992188 21.707031 17.726562 21.710938 L 16.234375 21.710938 L 16.234375 19.429688 C 17.476562 19.292969 18.765625 18.832031 19.851562 18.113281 C 21.160156 17.242188 22.222656 15.933594 22.222656 14.3125 C 22.222656 13.015625 21.820312 12.074219 21.398438 11.476562 C 21.339844 11.394531 21.285156 11.335938 21.226562 11.269531 C 21.433594 11.074219 21.628906 10.828125 21.777344 10.527344 L 24.433594 10.527344 C 24.433594 9.707031 23.765625 9.039062 22.945312 9.039062 L 21.976562 9.039062 C 21.847656 8.273438 21.398438 7.683594 20.902344 7.34375 C 20.3125 6.941406 19.710938 6.800781 19.214844 6.800781 Z M 19.214844 8.292969 C 19.355469 8.292969 19.777344 8.378906 20.0625 8.574219 C 20.34375 8.765625 20.53125 8.980469 20.53125 9.488281 C 20.53125 10.285156 19.746094 10.503906 19.746094 10.503906 C 19.414062 10.605469 19.191406 10.925781 19.21875 11.273438 C 19.242188 11.621094 19.507812 11.90625 19.855469 11.957031 C 19.933594 12.03125 20.046875 12.148438 20.179688 12.335938 C 20.445312 12.710938 20.730469 13.316406 20.730469 14.3125 C 20.730469 15.273438 20.074219 16.171875 19.027344 16.867188 C 18.003906 17.546875 16.648438 17.960938 15.558594 17.976562 C 15.53125 17.976562 15.503906 17.972656 15.476562 17.972656 C 15.449219 17.972656 15.417969 17.976562 15.386719 17.980469 C 13.03125 17.960938 11.285156 17.289062 11.285156 17.289062 C 11.199219 17.253906 11.109375 17.238281 11.015625 17.238281 L 8.613281 17.238281 C 8.851562 17.066406 9.09375 16.894531 9.316406 16.710938 C 9.480469 16.578125 9.640625 16.4375 9.804688 16.300781 C 10.9375 16.289062 12.476562 16.492188 14.742188 16.492188 C 16.867188 16.492188 18.523438 15.398438 18.523438 13.597656 C 18.523438 12.3125 17.746094 11.71875 17.300781 11.484375 C 17.320312 11.453125 17.347656 11.429688 17.367188 11.402344 C 17.652344 10.980469 17.789062 10.449219 17.800781 9.84375 C 17.8125 9.023438 18.058594 8.742188 18.335938 8.546875 C 18.613281 8.355469 19.007812 8.292969 19.214844 8.292969 Z M 19.214844 8.292969 "/>
</g>
</svg>
