<?xml version="1.0" encoding="UTF-8"?>
<svg xmlns="http://www.w3.org/2000/svg" xmlns:xlink="http://www.w3.org/1999/xlink" viewBox="0 0 50 50" width="50px" height="50px">
<g id="surface344109">
<path style=" stroke:none;fill-rule:nonzero;fill:rgb(100%,100%,100%);fill-opacity:1;" d="M 25 50 C 11.191406 50 0 38.808594 0 25 C 0 11.191406 11.191406 0 25 0 C 38.808594 0 50 11.191406 50 25 C 50 38.808594 38.808594 50 25 50 Z M 25 50 "/>
<path style=" stroke:none;fill-rule:nonzero;fill:rgb(0%,0%,0%);fill-opacity:1;" d="M 17.800781 6.699219 C 15 6.699219 12.394531 8.75 10.507812 12 C 8.621094 15.25 7.398438 19.777344 7.398438 25.101562 C 7.394531 25.390625 7.546875 25.65625 7.796875 25.804688 C 8.046875 25.949219 8.355469 25.949219 8.601562 25.804688 C 8.851562 25.65625 9.003906 25.390625 9 25.101562 C 9 20.023438 10.179688 15.75 11.890625 12.800781 C 13.605469 9.851562 15.800781 8.300781 17.800781 8.300781 C 20.371094 8.300781 21.679688 9.339844 22.460938 10.378906 C 22.886719 10.949219 23.121094 11.492188 23.253906 11.882812 C 22.375 12.308594 21.800781 13.042969 21.800781 13.902344 C 21.800781 13.996094 21.808594 14.085938 21.824219 14.179688 C 22.765625 13.515625 23.878906 13.101562 25 13.101562 C 26.121094 13.101562 27.234375 13.515625 28.175781 14.179688 C 28.191406 14.09375 28.199219 13.996094 28.199219 13.902344 C 28.199219 13.042969 27.625 12.308594 26.746094 11.882812 C 26.878906 11.492188 27.113281 10.949219 27.539062 10.378906 C 28.320312 9.339844 29.628906 8.300781 32.199219 8.300781 C 34.199219 8.300781 36.394531 9.851562 38.109375 12.800781 C 39.820312 15.75 41 20.023438 41 25.101562 C 40.996094 25.390625 41.148438 25.65625 41.398438 25.804688 C 41.644531 25.949219 41.953125 25.949219 42.203125 25.804688 C 42.453125 25.65625 42.605469 25.390625 42.601562 25.101562 C 42.601562 19.777344 41.378906 15.25 39.492188 12 C 37.605469 8.75 35 6.699219 32.199219 6.699219 C 29.171875 6.699219 27.277344 8.0625 26.257812 9.421875 C 25.664062 10.214844 25.355469 10.984375 25.1875 11.515625 C 25.125 11.511719 25.066406 11.5 25 11.5 C 24.933594 11.5 24.875 11.511719 24.8125 11.515625 C 24.644531 10.984375 24.335938 10.214844 23.742188 9.421875 C 22.722656 8.0625 20.828125 6.699219 17.800781 6.699219 Z M 16.191406 13.894531 C 15.867188 13.894531 15.574219 14.089844 15.449219 14.390625 C 15.328125 14.695312 15.402344 15.039062 15.632812 15.265625 C 15.644531 15.277344 15.796875 15.523438 15.890625 15.875 C 15.984375 16.222656 16.058594 16.664062 16.105469 17.089844 C 16.199219 17.9375 16.199219 18.699219 16.199219 18.699219 C 16.199219 19.070312 16.449219 19.386719 16.804688 19.476562 L 19.585938 20.171875 C 20.222656 21.605469 22.441406 22.699219 25 22.699219 C 27.558594 22.699219 29.777344 21.605469 30.414062 20.171875 L 33.195312 19.476562 C 33.550781 19.386719 33.800781 19.070312 33.800781 18.699219 C 33.800781 18.699219 33.800781 17.9375 33.894531 17.089844 C 33.941406 16.664062 34.015625 16.222656 34.109375 15.875 C 34.203125 15.523438 34.355469 15.277344 34.367188 15.265625 C 34.601562 15.035156 34.671875 14.683594 34.542969 14.382812 C 34.417969 14.078125 34.113281 13.882812 33.785156 13.894531 C 33.578125 13.898438 33.378906 13.984375 33.234375 14.136719 C 32.847656 14.523438 32.695312 14.976562 32.566406 15.453125 C 32.4375 15.929688 32.359375 16.4375 32.304688 16.910156 C 32.238281 17.527344 32.246094 17.742188 32.238281 18.066406 L 30.476562 18.503906 C 29.910156 16.507812 27.4375 14.699219 25 14.699219 C 22.5625 14.699219 20.089844 16.507812 19.523438 18.503906 L 17.761719 18.066406 C 17.753906 17.742188 17.761719 17.527344 17.695312 16.910156 C 17.640625 16.4375 17.5625 15.929688 17.433594 15.453125 C 17.304688 14.976562 17.152344 14.523438 16.765625 14.136719 C 16.613281 13.980469 16.40625 13.894531 16.191406 13.894531 Z M 30.96875 21.972656 C 30.746094 22.230469 30.480469 22.460938 30.191406 22.675781 C 29.015625 23.566406 27.457031 24.132812 25.800781 24.269531 L 25.800781 40.195312 C 28.070312 39.628906 29.933594 36.660156 30.828125 32.503906 L 33.789062 31.722656 C 33.824219 32.460938 33.894531 34.167969 34.121094 36.738281 C 34.257812 38.28125 34.429688 39.859375 34.648438 41.148438 C 34.757812 41.796875 34.878906 42.367188 35.019531 42.847656 C 35.160156 43.328125 35.261719 43.707031 35.640625 44.074219 C 35.847656 44.277344 36.144531 44.359375 36.421875 44.28125 C 36.699219 44.203125 36.914062 43.980469 36.984375 43.703125 C 37.054688 43.421875 36.96875 43.125 36.757812 42.925781 C 36.84375 43.007812 36.667969 42.773438 36.554688 42.394531 C 36.441406 42.015625 36.328125 41.492188 36.226562 40.882812 C 36.019531 39.667969 35.851562 38.117188 35.714844 36.597656 C 35.445312 33.566406 35.324219 30.667969 35.324219 30.667969 C 35.304688 30.246094 34.964844 29.914062 34.546875 29.902344 C 34.46875 29.898438 34.394531 29.90625 34.320312 29.925781 L 31.136719 30.765625 C 31.308594 29.542969 31.398438 28.246094 31.398438 26.894531 C 31.398438 26.316406 31.378906 25.753906 31.34375 25.191406 L 34.824219 24.429688 C 34.96875 24.886719 35.15625 25.546875 35.734375 26.828125 C 36.476562 28.480469 37.46875 30.375 38.957031 31.367188 C 39.195312 31.53125 39.5 31.554688 39.761719 31.425781 C 40.019531 31.300781 40.191406 31.042969 40.210938 30.753906 C 40.226562 30.46875 40.085938 30.191406 39.84375 30.035156 C 38.929688 29.425781 37.886719 27.71875 37.191406 26.171875 C 36.496094 24.625 36.089844 23.269531 36.089844 23.269531 C 35.988281 22.925781 35.667969 22.695312 35.308594 22.699219 C 35.257812 22.703125 35.203125 22.707031 35.152344 22.71875 L 31.203125 23.582031 C 31.140625 23.039062 31.066406 22.496094 30.96875 21.972656 Z M 19.03125 21.980469 C 18.933594 22.5 18.859375 23.039062 18.796875 23.582031 L 14.847656 22.71875 C 14.792969 22.707031 14.742188 22.703125 14.6875 22.699219 C 14.328125 22.695312 14.011719 22.929688 13.910156 23.269531 C 13.910156 23.269531 13.503906 24.625 12.808594 26.171875 C 12.113281 27.71875 11.070312 29.425781 10.15625 30.035156 C 9.914062 30.191406 9.773438 30.46875 9.789062 30.753906 C 9.808594 31.042969 9.980469 31.300781 10.238281 31.425781 C 10.5 31.554688 10.804688 31.53125 11.042969 31.367188 C 12.53125 30.375 13.523438 28.480469 14.265625 26.828125 C 14.84375 25.546875 15.03125 24.886719 15.175781 24.429688 L 18.65625 25.191406 C 18.621094 25.753906 18.601562 26.320312 18.601562 26.894531 C 18.601562 28.246094 18.691406 29.542969 18.863281 30.765625 L 15.679688 29.925781 C 15.601562 29.90625 15.523438 29.898438 15.441406 29.902344 C 15.027344 29.917969 14.695312 30.25 14.675781 30.667969 C 14.675781 30.667969 14.554688 33.566406 14.285156 36.597656 C 14.148438 38.117188 13.980469 39.667969 13.773438 40.882812 C 13.671875 41.492188 13.558594 42.015625 13.445312 42.394531 C 13.332031 42.773438 13.15625 43.007812 13.242188 42.925781 C 13.03125 43.125 12.945312 43.421875 13.015625 43.703125 C 13.085938 43.980469 13.300781 44.203125 13.578125 44.28125 C 13.855469 44.359375 14.152344 44.277344 14.359375 44.074219 C 14.738281 43.707031 14.839844 43.328125 14.980469 42.847656 C 15.121094 42.367188 15.242188 41.796875 15.351562 41.148438 C 15.570312 39.859375 15.742188 38.28125 15.878906 36.738281 C 16.105469 34.167969 16.175781 32.460938 16.210938 31.722656 L 19.171875 32.503906 C 20.066406 36.660156 21.929688 39.628906 24.199219 40.195312 L 24.199219 24.269531 C 22.542969 24.132812 20.984375 23.566406 19.816406 22.683594 C 19.527344 22.46875 19.261719 22.230469 19.03125 21.980469 Z M 19.03125 21.980469 "/>
</g>
</svg>
