<?xml version="1.0" encoding="UTF-8"?><svg id="a" xmlns="http://www.w3.org/2000/svg" viewBox="0 0 98.18 133.44"><defs><style>.b,.c{fill:#f15a2b;}.c{fill-rule:evenodd;}</style></defs><path class="b" d="M38.61,116.76c4.09,5.34,9.98,6.65,9.98,6.65,7.48-1.44,10.81-6.65,10.81-6.65h-20.79Z"/><path class="b" d="M64.84,114.1c1.27-1.62,1.98-3.45,1.98-5.4,0-6.5-7.98-11.78-17.82-11.78s-17.82,5.27-17.82,11.78c0,1.96,.73,3.8,2,5.42h31.6"/><path class="b" d="M55.54,120.08c.73,.17,1.46,.37,2.17,.58,.71,.21,1.43,.43,2.13,.67,.71,.23,1.41,.48,2.11,.74,.7,.25,1.39,.52,2.09,.79l.25,.1,.09,.28c.27,.83,.49,1.67,.74,2.51,.12,.42,.23,.84,.34,1.27,.11,.42,.23,.84,.33,1.27,.21,.85,.4,1.7,.58,2.56,.17,.86,.34,1.72,.45,2.59-.38-.79-.71-1.61-1.04-2.42-.32-.81-.63-1.63-.92-2.46-.15-.41-.28-.83-.42-1.24-.14-.41-.28-.83-.41-1.24-.26-.83-.53-1.66-.76-2.5l.34,.37c-.69-.29-1.38-.56-2.05-.87-.69-.3-1.36-.6-2.03-.93-.68-.31-1.34-.65-2.01-.99-.66-.35-1.32-.7-1.97-1.08Z"/><path class="b" d="M69.85,88.61c.38,.35,.76,.71,1.12,1.09,.36,.37,.72,.74,1.06,1.12,.7,.75,1.38,1.52,2.04,2.3,1.32,1.56,2.57,3.16,3.77,4.8l.12,.16,.08,.29c.23,.81,.46,1.62,.67,2.43,.21,.81,.42,1.63,.61,2.45,.39,1.63,.74,3.28,1.05,4.94,.31,1.65,.57,3.32,.78,5.01,.1,.84,.19,1.69,.26,2.54,.06,.85,.11,1.7,.12,2.57-.4-.77-.74-1.55-1.09-2.33-.34-.78-.65-1.57-.96-2.36-.6-1.58-1.14-3.18-1.64-4.79-.5-1.61-.96-3.23-1.37-4.86-.21-.81-.41-1.63-.6-2.45-.19-.82-.37-1.64-.54-2.46l.2,.45c-1.07-1.72-2.1-3.49-3.05-5.29-.48-.9-.94-1.82-1.37-2.75-.23-.46-.44-.93-.64-1.41-.21-.47-.41-.95-.59-1.44Z"/><path class="b" d="M42.34,120.08c-.65,.39-1.31,.74-1.97,1.08-.67,.34-1.33,.68-2.01,.99-.67,.32-1.35,.63-2.03,.93-.68,.31-1.37,.59-2.05,.87l.34-.37c-.23,.84-.51,1.67-.76,2.5-.13,.42-.27,.83-.41,1.24-.14,.41-.27,.83-.42,1.24-.29,.82-.6,1.64-.92,2.46-.33,.81-.66,1.62-1.04,2.42,.11-.88,.28-1.74,.45-2.59,.18-.86,.37-1.71,.58-2.56,.1-.43,.22-.84,.33-1.27,.11-.42,.21-.85,.34-1.27,.24-.84,.47-1.68,.74-2.51l.09-.28,.25-.1c.69-.27,1.39-.54,2.09-.79,.7-.26,1.4-.5,2.11-.74,.7-.24,1.42-.46,2.13-.67,.72-.21,1.44-.41,2.17-.58Z"/><path class="b" d="M28.03,88.61c-.18,.49-.38,.97-.59,1.44-.2,.48-.41,.95-.64,1.41-.44,.93-.89,1.85-1.37,2.75-.96,1.8-1.98,3.57-3.05,5.29l.2-.45c-.17,.82-.35,1.64-.54,2.46-.19,.82-.38,1.64-.6,2.45-.41,1.63-.88,3.25-1.37,4.86-.5,1.61-1.04,3.21-1.65,4.79-.3,.79-.62,1.58-.96,2.36-.34,.78-.69,1.56-1.09,2.33,0-.87,.06-1.72,.12-2.57,.07-.85,.16-1.7,.26-2.54,.2-1.68,.47-3.35,.77-5.01,.31-1.66,.65-3.3,1.05-4.94,.19-.82,.4-1.63,.61-2.45,.21-.81,.44-1.62,.67-2.43l.08-.29,.12-.16c1.2-1.64,2.45-3.24,3.77-4.8,.65-.78,1.34-1.55,2.04-2.3,.34-.38,.7-.75,1.06-1.12,.36-.37,.73-.73,1.12-1.09Z"/><path class="c" d="M34.72,28.78c.43-5.66,2.29-11.14,4.99-15.62,3.58-5.93,8.28-9.91,13.65-12.68,.3-.16,.63-.27,1.11-.47-.14,.88-.25,1.54-.36,2.19-.62,3.74-.88,7.49-.4,11.29,.8,6.32,3.29,11.49,6.75,15.87,3.13,3.96,6.47,7.65,9.73,11.44,2.74,3.18,5.29,6.58,7.13,10.73,3.2,7.27,3.18,14.84,1.17,22.58,0,0-.64,2.6-2.52,6.14-.52,.86-1,1.77-1.57,2.57-4.99,7.01-11.4,10.67-18.46,12.74-.27,.08-.57,0-1.05,0,.35-.54,.59-.85,.78-1.21,1.66-3.12,3.52-6.11,4.93-9.41,2.25-5.24,3.1-10.93,1.88-16.84-1.9-9.22-7.02-14.96-13.29-19.82,1.48,4.93,.65,9.25-1.08,13.42-1.48,3.57-3.57,6.51-5.8,9.32-2.15,2.71-3.22,6.04-3.17,9.89,.06,4.77,1.4,9.05,3.3,13.08,.23,.49,.43,1.02,.72,1.71-.49,0-.8,.07-1.09,0-1.41-.38-2.87-.61-4.21-1.23-5.47-2.5-10.11-6.64-13.94-12.22-4.87-7.1-7.04-15.25-5.64-24.72,1.13-7.62,3.94-14.15,7.9-19.91,1.24-1.8,2.62-3.43,4.03-5.26,1.66,2.94,3.25,5.6,5.43,7.52-.29-3.21-.58-6.31-.86-9.48"/><path class="b" d="M13.46,68.33c.28-1.28,.48-2.56,.68-3.84,.17-1.28,.36-2.56,.5-3.84,.29-2.56,.5-5.12,.66-7.69,.15-2.56,.25-5.12,.3-7.69,.04-2.56,.05-5.12,0-7.69l-.08,.56c.92-3.62,1.74-7.27,2.42-10.95,.34-1.84,.66-3.69,.91-5.56,.13-.93,.26-1.87,.36-2.81,.11-.94,.2-1.88,.25-2.83-.44,.85-.85,1.7-1.24,2.56-.4,.86-.76,1.72-1.13,2.59-.75,1.73-1.42,3.48-2.08,5.24-1.3,3.51-2.47,7.06-3.54,10.64l-.07,.23v.33c-.06,2.56-.06,5.12-.02,7.69,.04,2.56,.13,5.13,.28,7.69,.16,2.56,.36,5.12,.65,7.69,.13,1.28,.33,2.56,.49,3.84,.2,1.28,.4,2.56,.67,3.84Z"/><path class="b" d="M84.64,68.33c-.28-1.28-.47-2.56-.68-3.84-.16-1.28-.36-2.56-.5-3.84-.29-2.56-.5-5.12-.66-7.69-.15-2.56-.25-5.12-.3-7.69-.04-2.56-.05-5.12,0-7.69l.08,.56c-.92-3.62-1.74-7.27-2.42-10.95-.34-1.84-.66-3.69-.9-5.56-.13-.93-.26-1.87-.36-2.81-.11-.94-.2-1.88-.25-2.83,.44,.85,.85,1.7,1.23,2.56,.41,.86,.77,1.72,1.14,2.59,.75,1.73,1.42,3.48,2.07,5.24,1.3,3.51,2.47,7.06,3.54,10.64l.07,.23v.33c.07,2.56,.07,5.12,.03,7.69-.05,2.56-.13,5.13-.28,7.69-.16,2.56-.36,5.12-.64,7.69-.13,1.28-.33,2.56-.49,3.84-.2,1.28-.4,2.56-.67,3.84Z"/><path class="b" d="M20.93,83.95c-.45-.8-.93-1.56-1.41-2.33-.5-.75-.99-1.51-1.51-2.24-1.03-1.48-2.09-2.92-3.19-4.33-1.1-1.41-2.23-2.8-3.38-4.17-1.16-1.36-2.33-2.71-3.54-4.03l.22,.33c-1.18-2.32-2.43-4.61-3.77-6.85-.67-1.12-1.35-2.24-2.08-3.33-.36-.55-.72-1.1-1.1-1.63-.38-.54-.76-1.08-1.17-1.6,.16,.64,.34,1.28,.53,1.91,.18,.63,.39,1.26,.6,1.88,.4,1.25,.86,2.48,1.32,3.7,.93,2.44,1.95,4.84,3.04,7.21l.07,.15,.15,.17c1.15,1.37,2.33,2.71,3.53,4.04,1.2,1.32,2.43,2.62,3.69,3.9,1.26,1.27,2.54,2.52,3.87,3.73,.66,.61,1.35,1.19,2.02,1.79,.7,.58,1.39,1.16,2.12,1.71Z"/><path class="b" d="M77.26,83.95c.45-.8,.93-1.56,1.41-2.33,.5-.75,.99-1.51,1.51-2.24,1.02-1.48,2.09-2.92,3.19-4.33,1.1-1.41,2.23-2.8,3.38-4.17,1.16-1.36,2.33-2.71,3.54-4.03l-.22,.33c1.18-2.32,2.43-4.61,3.76-6.85,.67-1.12,1.35-2.24,2.09-3.33,.36-.55,.72-1.1,1.1-1.63,.37-.54,.76-1.08,1.17-1.6-.16,.64-.33,1.28-.53,1.91-.18,.63-.39,1.26-.6,1.88-.4,1.25-.86,2.48-1.32,3.7-.93,2.44-1.95,4.84-3.04,7.21l-.07,.15-.15,.17c-1.15,1.37-2.33,2.71-3.53,4.04-1.2,1.32-2.43,2.62-3.69,3.9-1.26,1.27-2.54,2.52-3.87,3.73-.66,.61-1.35,1.19-2.02,1.79-.7,.58-1.39,1.16-2.12,1.71Z"/></svg>