<?xml version="1.0" encoding="UTF-8"?><svg xmlns="http://www.w3.org/2000/svg" viewBox="0 0 128.59 91.07"><defs><style>.c,.d{fill:#ee6a31;}.d{fill-rule:evenodd;}</style></defs><g id="a"/><g id="b"><g><path class="c" d="M21.16,58.03c1.78,2.66,4.34,3.32,4.34,3.32,3.26-.72,4.71-3.32,4.71-3.32h-9.05Z"/><path class="c" d="M32.58,56.88c.55-.81,.86-1.72,.86-2.69,0-3.24-3.47-5.87-7.76-5.87s-7.76,2.63-7.76,5.87c0,.98,.32,1.89,.87,2.7h13.76"/><path class="c" d="M28.53,59.86c.32,.08,.63,.18,.95,.29,.31,.11,.62,.22,.93,.34,.31,.12,.61,.24,.92,.37,.31,.12,.61,.26,.91,.39l.11,.05,.04,.14c.12,.41,.22,.83,.32,1.25,.05,.21,.1,.42,.15,.63,.05,.21,.1,.42,.14,.63,.09,.42,.18,.85,.25,1.28,.07,.43,.15,.86,.2,1.29-.17-.4-.31-.8-.46-1.21-.14-.41-.27-.81-.4-1.22-.07-.2-.12-.41-.18-.62-.06-.21-.12-.41-.18-.62-.11-.42-.23-.83-.33-1.25l.15,.19c-.3-.14-.6-.28-.89-.43-.3-.15-.59-.3-.89-.46-.3-.16-.58-.32-.87-.49-.29-.17-.58-.35-.86-.54Z"/><path class="c" d="M35.28,44.89c.17,.18,.33,.36,.49,.54,.16,.18,.31,.37,.46,.56,.31,.37,.6,.76,.89,1.15,.57,.78,1.12,1.58,1.64,2.4l.05,.08,.03,.14c.1,.4,.2,.81,.29,1.21,.09,.41,.18,.81,.26,1.22,.17,.81,.32,1.64,.46,2.46,.13,.82,.25,1.66,.34,2.5,.04,.42,.08,.84,.11,1.26,.02,.42,.05,.85,.05,1.28-.17-.38-.32-.77-.47-1.16-.15-.39-.28-.78-.42-1.18-.26-.79-.5-1.59-.72-2.39-.22-.8-.42-1.61-.6-2.42-.09-.41-.18-.81-.26-1.22-.08-.41-.16-.82-.24-1.23l.09,.22c-.47-.86-.91-1.74-1.33-2.64-.21-.45-.41-.91-.6-1.37-.1-.23-.19-.46-.28-.7-.09-.23-.18-.47-.26-.72Z"/><path class="c" d="M22.78,59.86c-.28,.19-.57,.37-.86,.54-.29,.17-.58,.34-.87,.49-.29,.16-.59,.31-.89,.46-.3,.15-.6,.29-.89,.43l.15-.19c-.1,.42-.22,.83-.33,1.25-.05,.21-.12,.41-.18,.62-.06,.21-.12,.41-.18,.62-.13,.41-.26,.82-.4,1.22-.14,.41-.29,.81-.46,1.21,.05-.44,.12-.87,.2-1.29,.08-.43,.16-.85,.25-1.28,.04-.21,.1-.42,.14-.63,.05-.21,.09-.42,.15-.63,.11-.42,.2-.84,.32-1.25l.04-.14,.11-.05c.3-.13,.6-.27,.91-.39,.3-.13,.61-.25,.92-.37,.31-.12,.62-.23,.93-.34,.31-.1,.63-.21,.95-.29Z"/><path class="c" d="M16.13,44.89c-.08,.24-.16,.48-.26,.72-.09,.24-.18,.47-.28,.7-.19,.46-.39,.92-.6,1.37-.42,.9-.86,1.78-1.33,2.64l.09-.22c-.08,.41-.15,.82-.24,1.23-.08,.41-.17,.82-.26,1.22-.18,.81-.38,1.62-.6,2.42-.22,.8-.45,1.6-.72,2.39-.13,.39-.27,.79-.42,1.18-.15,.39-.3,.78-.47,1.16,0-.43,.03-.86,.05-1.28,.03-.42,.07-.85,.11-1.26,.09-.84,.2-1.67,.34-2.5,.13-.83,.28-1.65,.46-2.46,.08-.41,.17-.81,.26-1.22,.09-.41,.19-.81,.29-1.21l.04-.14,.05-.08c.52-.82,1.07-1.62,1.64-2.4,.28-.39,.58-.77,.89-1.15,.15-.19,.31-.37,.46-.56,.16-.19,.32-.37,.49-.54Z"/><path class="d" d="M19.86,19.88c-1.01-6.85-.48-9.38,1.78-13.32,1.56-2.96,3.61-4.94,5.94-6.32,.13-.08,.27-.13,.48-.24-.06,.44-.11,.77-.16,1.09-.27,1.86-.38,3.73-.17,5.63,.35,3.15,1.43,5.73,2.94,7.91,1.36,1.97,2.82,3.81,4.24,5.7,1.19,1.59,2.31,3.28,3.1,5.35,1.4,3.62,1.38,7.4,.51,11.26,0,0-.28,1.29-1.1,3.06-.23,.43-.44,.88-.69,1.28-2.17,3.5-7.84,6.12-7.84,6.12,0,0-.45,.24-.66,.24,.15-.27,.25-.43,.34-.6,.72-1.56,1.53-3.05,2.15-4.69,.98-2.61,1.35-5.45,.82-8.4-.83-4.59-3.06-7.46-5.79-9.88,.65,2.46,.28,4.61-.47,6.69-.65,1.78-1.56,3.25-2.53,4.65-.94,1.35-1.4,3.01-1.38,4.93,.03,2.38,.61,4.51,1.44,6.52,.1,.25,.19,.51,.31,.85-.21,0-.47-.06-.47-.06,0,0-1.25-.25-1.84-.56-2.38-1.25-4.4-3.31-6.07-6.09-2.12-3.54-3.06-7.6-2.45-12.32,.49-3.8,1.72-7.06,3.44-9.93,.54-.9,1.14-1.71,1.75-2.62,.72,1.47,1.41,2.79,2.36,3.75"/><path class="c" d="M10.29,32c.08-.65,.13-1.29,.18-1.94,.03-.64,.08-1.29,.1-1.93,.05-1.28,.06-2.57,.05-3.84-.01-1.28-.05-2.56-.1-3.83-.06-1.27-.12-2.44-.23-3.71h0c.29-1.83,.51-3.51,.69-5.36,.09-.93,.18-1.86,.22-2.8,.03-.47,.06-.94,.07-1.41,.02-.47,.03-.94,.02-1.42-.17,.44-.32,.88-.46,1.32-.15,.44-.28,.88-.41,1.33-.27,.89-.51,1.78-.74,2.68-.46,1.79-.88,3.71-1.24,5.53h0c.05,1.28,.14,2.71,.23,3.99,.1,1.27,.21,2.54,.36,3.81,.15,1.27,.31,2.54,.51,3.8,.1,.63,.22,1.26,.33,1.89,.13,.63,.25,1.26,.41,1.89Z"/><path class="c" d="M40.81,31.75c-.07-.65-.11-1.29-.15-1.94-.02-.64-.06-1.29-.07-1.93-.03-1.28-.02-2.57,0-3.85,.03-1.28,.09-2.55,.16-3.83,.08-1.27,.17-2.55,.29-3.82v.28c-.25-1.84-.47-3.68-.62-5.54-.08-.93-.15-1.86-.18-2.8-.02-.47-.04-.94-.05-1.41-.01-.47-.01-.94,0-1.42,.16,.44,.3,.88,.44,1.33,.14,.44,.27,.89,.39,1.34,.26,.89,.48,1.79,.7,2.69,.43,1.8,.83,3.73,1.15,5.56h0c-.07,1.28-.18,2.71-.29,3.98-.12,1.27-.25,2.54-.41,3.81-.17,1.27-.35,2.53-.57,3.79-.11,.63-.24,1.26-.36,1.89-.14,.63-.27,1.26-.44,1.88Z"/><path class="c" d="M14.43,42.38c-.19-.4-.41-.78-.62-1.16-.22-.37-.43-.75-.66-1.12-.45-.74-.91-1.45-1.39-2.16-.48-.7-.97-1.4-1.47-2.08-.5-.68-1.02-1.35-1.54-2.01l.09,.16c-.51-1.16-1.06-2.3-1.64-3.42-.29-.56-.59-1.12-.91-1.66-.16-.27-.31-.55-.48-.81-.16-.27-.33-.54-.51-.8,.07,.32,.15,.64,.23,.95,.08,.32,.17,.63,.26,.94,.18,.62,.37,1.24,.57,1.84,.41,1.22,.85,2.41,1.32,3.59l.03,.08,.06,.09c.5,.68,1.01,1.35,1.54,2.01,.52,.66,1.06,1.31,1.6,1.94,.55,.63,1.11,1.26,1.69,1.86,.29,.3,.59,.59,.88,.89,.3,.29,.6,.58,.92,.85Z"/><path class="c" d="M37.56,41.85c.19-.4,.4-.78,.61-1.16,.22-.37,.43-.75,.66-1.12,.45-.74,.91-1.45,1.39-2.16,.48-.7,.97-1.4,1.47-2.08,.5-.68,1.02-1.35,1.54-2.01l-.09,.16c.51-1.16,1.06-2.3,1.64-3.42,.29-.56,.59-1.12,.91-1.66,.16-.27,.31-.55,.48-.81,.16-.27,.33-.54,.51-.8-.07,.32-.15,.64-.23,.95-.08,.32-.17,.63-.26,.94-.17,.62-.37,1.24-.57,1.84-.41,1.22-.85,2.41-1.32,3.59l-.03,.08-.06,.09c-.5,.68-1.01,1.35-1.54,2.01-.52,.66-1.06,1.31-1.6,1.94-.55,.63-1.11,1.26-1.69,1.86-.29,.3-.59,.59-.88,.89-.3,.29-.6,.58-.92,.85Z"/></g><g><path class="c" d="M79.98,55.17v3.72c-.06,1.75-.24,3.14-.56,4.17-.81,2.51-2.93,3.77-6.37,3.77h-11.65V.31h12.43c3.03,0,4.91,1.29,5.63,3.87,.29,1.03,.46,2.41,.52,4.17v3.77l-.04,10.66c0,3.74-1.01,6.89-3.03,9.47,2.02,2.58,3.03,5.74,3.03,9.47l.04,13.44Zm-7.19-42.9c0-1.49-.42-2.51-1.26-3.07-.4-.26-.82-.38-1.26-.35h-1.6V27.39h1.56c.43,0,.87-.13,1.3-.4,.84-.56,1.26-1.59,1.26-3.07V12.26Zm0,28.32c0-1.52-.42-2.55-1.26-3.07-.4-.26-.82-.35-1.26-.35h-1.6v21.28h1.56c.45,0,.8-.08,1.3-.4,.85-.53,1.26-1.65,1.26-3.03v-14.43Z"/><path class="c" d="M105.47,.33V66.84h-7.28v-29.11h-5.2v29.11h-7.28V.33h7.28V29.45h5.2V.33h7.28Z"/><path class="c" d="M128.12,8.67h-4.85v58.18h-7.23V8.67h-4.85V.33h16.94V8.67Z"/><g><path class="c" d="M5.45,87.32v1.09c-.02,.51-.07,.92-.17,1.22-.24,.74-.86,1.11-1.87,1.11H0v-19.51H3.65c.89,0,1.44,.38,1.65,1.14,.08,.3,.13,.71,.15,1.22v4.23c-.01,1.1-.31,2.03-.9,2.78,.59,.76,.89,1.68,.89,2.78v3.95Zm-2.1-12.59c0-.44-.13-.74-.37-.9-.12-.08-.24-.11-.37-.1h-.47v5.44h.46c.13,0,.25-.04,.38-.12,.24-.16,.37-.46,.37-.9v-3.42Zm0,8.31c0-.45-.13-.75-.37-.9-.12-.08-.24-.11-.37-.1h-.47v6.24h.46c.13,.01,.25-.03,.38-.11,.24-.17,.37-.46,.37-.89v-4.23Z"/><path class="c" d="M10.71,71.22h2.17v16.55c0,.9-.28,1.68-.85,2.33-.56,.64-1.24,.96-2.03,.96s-1.46-.32-2.03-.96c-.56-.65-.84-1.42-.84-2.33v-16.55h2.16v16.85c0,.22,.07,.41,.21,.57,.14,.15,.3,.23,.5,.23s.37-.08,.51-.23c.14-.15,.21-.35,.21-.57v-16.85Z"/><path class="c" d="M18.14,78.62v-4.72c0-.22-.07-.41-.2-.56-.14-.17-.31-.25-.51-.25s-.36,.08-.49,.25c-.14,.16-.22,.34-.22,.56v14.17c0,.22,.07,.41,.22,.57,.14,.15,.3,.23,.49,.23s.36-.08,.51-.23c.14-.15,.2-.35,.2-.57v-5.88h-.67v-2.44h2.85v8.03c0,.9-.28,1.68-.85,2.33-.56,.64-1.23,.96-2.03,.96s-1.47-.32-2.03-.96c-.56-.65-.84-1.42-.84-2.33v-13.59c0-.9,.28-1.68,.84-2.33,.57-.64,1.25-.96,2.03-.96s1.47,.32,2.03,.96c.57,.65,.85,1.43,.85,2.33v4.42h-2.17Z"/><path class="c" d="M24.87,70.94c.8,0,1.47,.32,2.03,.97,.57,.64,.85,1.41,.85,2.31v4.44h-2.17v-4.72c0-.23-.07-.43-.2-.58-.14-.15-.31-.23-.51-.23s-.36,.08-.49,.23c-.14,.15-.2,.35-.2,.58v4.82c0,.22,.05,.41,.17,.57,.13,.16,.28,.23,.47,.23h.41c.6,0,1.1,.18,1.51,.55,.32,.3,.57,.71,.75,1.22,.2,.58,.3,1.17,.28,1.76v4.98h0c-.07,.86-.38,1.56-.93,2.14-.55,.57-1.2,.86-1.96,.86s-1.39-.29-1.94-.86c-.55-.57-.86-1.27-.93-2.11v-4.73h2.17v4.7c0,.22,.07,.41,.2,.57,.14,.15,.3,.23,.49,.23s.36-.08,.51-.23c.14-.15,.2-.35,.2-.57v-4.96c0-.54-.21-.82-.63-.82h-.14c-.81,0-1.5-.36-2.07-1.09-.49-.63-.74-1.36-.74-2.2v-4.79c0-.9,.28-1.67,.84-2.31s1.24-.97,2.03-.97Z"/><path class="c" d="M37.95,71.22v19.51h-2.13v-8.54h-1.52v8.54h-2.14v-19.51h2.14v8.54h1.52v-8.54h2.13Z"/><path class="c" d="M41.76,73.67v6.1h2.12v2.44h-2.12v6.08h2.12v2.44h-4.26v-19.51h4.26v2.45h-2.12Z"/><path class="c" d="M49.58,88.52h-1.64l-.24,2.21h-2.13l2.13-19.51h2.12l2.13,19.51h-2.13l-.24-2.21Zm-.27-2.43l-.56-5.12-.55,5.12h1.11Z"/><path class="c" d="M57.33,73.67h-1.42v17.06h-2.12v-17.06h-1.42v-2.45h4.97v2.45Z"/><path class="c" d="M66.68,73.67h-1.42v17.06h-2.12v-17.06h-1.42v-2.45h4.97v2.45Z"/><path class="c" d="M70.49,73.67v6.1h2.12v2.44h-2.12v6.08h2.12v2.44h-4.26v-19.51h4.26v2.45h-2.12Z"/><path class="c" d="M77.94,71.22c.83,0,1.36,.4,1.6,1.19,.1,.32,.15,.73,.18,1.24,0,.19,.01,.42,.01,.7v5.74c0,.34-.05,.73-.16,1.17-.14,.53-.34,.98-.58,1.38,.3,.31,.49,.79,.57,1.46,.04,.25,.06,.57,.07,.95v5.69h-2.1v-4.99c0-.24-.04-.45-.12-.61-.06-.13-.15-.22-.26-.29-.12-.08-.25-.11-.37-.1h-.36v5.99h-2.13v-19.51h3.65Zm-1.51,10.23h.47c.13,0,.25-.03,.37-.1,.25-.16,.37-.46,.37-.91v-5.72c0-.44-.12-.74-.37-.9-.12-.08-.24-.11-.37-.1h-.47v7.73Z"/><path class="c" d="M89.43,71.22v19.51h-2.13v-8.55l-1.07,8.55h-1.67l-1.03-8.36v8.36h-2.14v-19.51h2.14l1.87,10.26,1.87-10.26h2.16Z"/><path class="c" d="M93.25,90.73h-2.13v-19.51h2.13v19.51Z"/><path class="c" d="M100.6,71.22v19.51h-2.13l-1.41-8.36v8.36h-2.13v-19.51h2.13l1.41,9.01v-9.01h2.13Z"/><path class="c" d="M106.29,88.52h-1.64l-.24,2.21h-2.13l2.13-19.51h2.12l2.14,19.51h-2.14l-.24-2.21Zm-.27-2.43l-.56-5.12-.54,5.12h1.1Z"/><path class="c" d="M114.05,73.67h-1.42v17.06h-2.12v-17.06h-1.42v-2.45h4.97v2.45Z"/><path class="c" d="M118.6,70.91c.79,0,1.47,.32,2.03,.96,.57,.65,.85,1.43,.85,2.33v13.59c0,.9-.29,1.68-.85,2.33-.56,.64-1.24,.96-2.03,.96s-1.47-.32-2.04-.96c-.56-.65-.84-1.42-.84-2.33v-13.59c0-.9,.28-1.68,.84-2.33,.57-.64,1.25-.96,2.04-.96Zm-.71,17.16c0,.22,.07,.41,.22,.57,.13,.15,.3,.23,.5,.23s.36-.08,.5-.23c.14-.15,.2-.35,.2-.57v-14.17c0-.22-.07-.41-.2-.56-.14-.17-.31-.25-.5-.25s-.36,.08-.5,.25c-.15,.16-.22,.34-.22,.56v14.17Z"/><path class="c" d="M126.8,71.22c.83,0,1.36,.4,1.6,1.19,.09,.32,.15,.73,.18,1.24,0,.19,.01,.42,.01,.7v5.74c0,.34-.06,.73-.16,1.17-.15,.53-.34,.98-.58,1.38,.29,.31,.49,.79,.57,1.46,.03,.25,.05,.57,.06,.95v5.69h-2.1v-4.99c0-.24-.04-.45-.11-.61-.06-.13-.15-.22-.26-.29-.13-.08-.25-.11-.37-.1h-.36v5.99h-2.13v-19.51h3.65Zm-1.51,10.23h.47c.13,0,.25-.03,.37-.1,.24-.16,.37-.46,.37-.91v-5.72c0-.44-.13-.74-.37-.9-.12-.08-.24-.11-.37-.1h-.47v7.73Z"/></g></g></g></svg>