<?xml version="1.0" encoding="UTF-8"?>
<svg xmlns="http://www.w3.org/2000/svg" xmlns:xlink="http://www.w3.org/1999/xlink" viewBox="0 0 30 30" width="30px" height="30px">
<g id="surface1279410">
<path style=" stroke:none;fill-rule:nonzero;fill:rgb(83.92157%,45.882353%,16.078432%);fill-opacity:1;" d="M 0 15 C 0 6.714844 6.714844 0 15 0 C 23.285156 0 30 6.714844 30 15 C 30 23.285156 23.285156 30 15 30 C 6.714844 30 0 23.285156 0 15 Z M 15 28.800781 C 22.621094 28.800781 28.800781 22.621094 28.800781 15 C 28.800781 7.378906 22.621094 1.199219 15 1.199219 C 7.378906 1.199219 1.199219 7.378906 1.199219 15 C 1.199219 22.621094 7.378906 28.800781 15 28.800781 Z M 15 28.800781 "/>
<path style=" stroke:none;fill-rule:nonzero;fill:rgb(90.196079%,49.411765%,13.333334%);fill-opacity:1;" d="M 6.21875 8.660156 L 14.160156 16.070312 C 14.632812 16.511719 15.367188 16.511719 15.839844 16.070312 L 23.78125 8.660156 Z M 5.136719 9.578125 L 5.136719 21.339844 L 24.863281 21.339844 L 24.863281 9.578125 L 16.800781 17.101562 C 16.292969 17.570312 15.648438 17.808594 15 17.808594 C 14.351562 17.808594 13.707031 17.570312 13.199219 17.101562 Z M 5.136719 9.578125 "/>
</g>
</svg>
