<?xml version="1.0" encoding="UTF-8"?>
<svg xmlns="http://www.w3.org/2000/svg" xmlns:xlink="http://www.w3.org/1999/xlink" viewBox="0 0 50 50" width="50px" height="50px">
<g id="surface354452">
<path style=" stroke:none;fill-rule:nonzero;fill:rgb(100%,100%,100%);fill-opacity:1;" d="M 25 50 C 11.191406 50 0 38.808594 0 25 C 0 11.191406 11.191406 0 25 0 C 38.808594 0 50 11.191406 50 25 C 50 38.808594 38.808594 50 25 50 Z M 25 50 "/>
<path style=" stroke:none;fill-rule:nonzero;fill:rgb(0%,0%,0%);fill-opacity:1;" d="M 35.171875 21.679688 C 39.179688 21.445312 42.863281 19.832031 42.863281 18.015625 C 42.863281 17.109375 36.339844 10.953125 31.183594 10.953125 C 30.765625 9.6875 29.675781 8.871094 28.589844 9.085938 C 27.445312 9.316406 26.738281 10.601562 26.933594 12.015625 C 25.726562 12.242188 24.472656 12.191406 23.21875 12.042969 C 17.566406 11.375 14.125 14.40625 11.671875 17.660156 C 10.515625 19.195312 9.0625 23.117188 8.84375 26.445312 C 8.222656 27.230469 7.703125 28.117188 7.398438 29.097656 C 7.003906 30.304688 6.960938 31.597656 7.191406 32.761719 C 7.683594 35.121094 9.171875 36.820312 10.742188 37.941406 C 12.34375 39.0625 14.097656 39.683594 15.828125 40 C 17.523438 40.273438 19.226562 40.15625 20.925781 39.992188 C 24.113281 39.660156 27.1875 39.15625 30.261719 38.855469 C 31.742188 38.722656 33.242188 38.585938 34.710938 38.910156 C 35.390625 39.058594 36.015625 39.34375 36.382812 39.824219 C 36.777344 40.308594 36.925781 41.011719 36.679688 41.523438 C 36.574219 41.746094 36.664062 42.019531 36.886719 42.136719 C 37.113281 42.257812 37.394531 42.167969 37.515625 41.941406 C 37.996094 41.015625 37.75 39.972656 37.257812 39.207031 C 36.722656 38.386719 35.851562 37.949219 35.042969 37.695312 C 33.484375 37.21875 31.808594 37.152344 30.191406 37.132812 C 27.03125 37.09375 23.894531 37.238281 20.84375 37.101562 C 19.421875 37.050781 18 36.910156 16.628906 36.515625 C 15.324219 36.132812 14.125 35.542969 13.257812 34.742188 C 12.898438 34.410156 12.609375 34.039062 12.398438 33.660156 C 12.546875 33.722656 12.707031 33.757812 12.875 33.757812 L 24.628906 33.757812 C 24.828125 33.757812 24.992188 33.59375 24.992188 33.394531 L 24.992188 33.363281 C 24.992188 32.28125 24.113281 31.40625 23.035156 31.40625 L 21.117188 31.40625 C 21.984375 31.066406 22.527344 30.574219 22.847656 30.089844 C 23.183594 29.585938 23.871094 29.15625 24.566406 28.839844 L 27.058594 31.058594 C 27.777344 31.601562 28.195312 32.421875 28.195312 33.292969 C 28.195312 33.550781 28.414062 33.757812 28.679688 33.757812 L 32.210938 33.757812 C 32.410156 33.757812 32.574219 33.59375 32.574219 33.394531 C 32.574219 32.726562 32.03125 32.1875 31.367188 32.1875 C 30.800781 32.1875 30.3125 31.792969 30.191406 31.238281 L 29.417969 27.6875 C 30.367188 27.269531 31.105469 26.667969 31.679688 26.03125 L 32.9375 26.097656 C 33.636719 26.136719 34.175781 27.0625 34.558594 27.414062 C 35.007812 27.824219 35.742188 27.367188 35.773438 26.765625 L 35.65625 25.289062 C 35.566406 24.847656 34.921875 24.332031 34.546875 24.113281 L 33.328125 23.46875 C 33.355469 23.417969 33.382812 23.359375 33.40625 23.3125 C 33.738281 22.652344 34.039062 21.746094 35.171875 21.679688 Z M 35.171875 21.679688 "/>
</g>
</svg>
