<?xml version="1.0"?><svg fill="#000000" xmlns="http://www.w3.org/2000/svg"  viewBox="0 0 50 50" width="50px" height="50px">    <path d="M37.99,20.593c5.112-0.301,9.812-2.356,9.812-4.673c0-1.157-8.323-9.014-14.904-9.013c-0.532-1.612-1.923-2.655-3.308-2.379 c-1.459,0.291-2.361,1.934-2.113,3.736c-1.539,0.289-3.136,0.224-4.74,0.034c-7.207-0.852-11.599,3.018-14.727,7.167 c-1.478,1.96-3.333,6.963-3.611,11.209c-0.789,1.001-1.452,2.133-1.843,3.381c-0.504,1.542-0.556,3.189-0.264,4.674 c0.63,3.011,2.526,5.18,4.529,6.612c2.044,1.43,4.284,2.221,6.49,2.624c2.163,0.348,4.336,0.2,6.505-0.01 c4.062-0.425,7.988-1.066,11.906-1.45c1.893-0.169,3.803-0.345,5.679,0.068c0.866,0.191,1.666,0.555,2.133,1.167 c0.501,0.621,0.693,1.518,0.38,2.168c-0.138,0.287-0.024,0.634,0.26,0.783c0.291,0.152,0.65,0.04,0.802-0.251 c0.617-1.18,0.302-2.509-0.327-3.487c-0.682-1.048-1.794-1.606-2.827-1.928c-1.988-0.608-4.122-0.694-6.187-0.718 c-4.034-0.048-8.033,0.137-11.928-0.039c-1.814-0.065-3.627-0.246-5.376-0.749c-1.661-0.49-3.195-1.239-4.298-2.263 c-0.46-0.422-0.827-0.898-1.096-1.38C9.123,35.956,9.327,36,9.541,36h14.998C24.794,36,25,35.794,25,35.539v-0.042 C25,34.118,23.882,33,22.503,33h-2.447c1.106-0.43,1.8-1.061,2.212-1.68c0.425-0.64,1.301-1.188,2.19-1.591l3.18,2.831 c0.916,0.689,1.45,1.738,1.45,2.849c0,0.326,0.278,0.59,0.62,0.59h4.501c0.256,0,0.463-0.207,0.463-0.463 c0-0.849-0.688-1.537-1.537-1.537c-0.723,0-1.348-0.504-1.502-1.211l-0.986-4.533c1.212-0.533,2.154-1.3,2.888-2.11l1.603,0.085 c0.89,0.047,1.578,1.228,2.069,1.678c0.57,0.522,1.509-0.057,1.547-0.829l-0.146-1.881c-0.117-0.564-0.938-1.221-1.415-1.5 l-1.556-0.821c0.034-0.069,0.069-0.142,0.098-0.199C36.158,21.832,36.544,20.678,37.99,20.593z"/></svg>