<?xml version="1.0" encoding="UTF-8"?>
<svg xmlns="http://www.w3.org/2000/svg" xmlns:xlink="http://www.w3.org/1999/xlink" viewBox="0 0 30 30" width="30px" height="30px">
<g id="surface1921745">
<path style=" stroke:none;fill-rule:nonzero;fill:rgb(100%,100%,100%);fill-opacity:1;" d="M 9.984375 0.988281 C 9.433594 0.996094 8.992188 1.449219 9 2 L 9 4 C 9 5.339844 9.90625 6.472656 11.125 6.855469 C 11.046875 7.195312 11 7.574219 11 8 C 11 10.128906 12.496094 11 15 11 C 17.503906 11 19 10.128906 19 8 C 19 7.578125 18.945312 7.203125 18.859375 6.859375 C 20.089844 6.480469 21 5.34375 21 4 L 21 2 C 21.003906 1.730469 20.898438 1.46875 20.707031 1.277344 C 20.515625 1.085938 20.253906 0.980469 19.984375 0.988281 C 19.433594 0.996094 18.992188 1.449219 19 2 L 19 4 C 19 4.566406 18.566406 5 18 5 L 17.714844 5 C 17.160156 3.511719 16 3 16 3 L 16 4.144531 C 15.640625 4.054688 15.296875 4 15 4 C 14.710938 4 14.363281 4.042969 14 4.125 L 14 3 C 14 3 12.886719 3.484375 12.324219 4.921875 C 12.292969 4.945312 12.265625 4.976562 12.238281 5 L 12 5 C 11.433594 5 11 4.566406 11 4 L 11 2 C 11.003906 1.730469 10.898438 1.46875 10.707031 1.277344 C 10.515625 1.085938 10.253906 0.980469 9.984375 0.988281 Z M 15 11 C 13.683594 11 12.660156 11.3125 11.96875 11.867188 L 8.789062 10.277344 L 6.925781 5.628906 C 6.78125 5.242188 6.410156 4.988281 6 4.988281 C 5.664062 4.984375 5.351562 5.152344 5.164062 5.429688 C 4.976562 5.707031 4.941406 6.0625 5.074219 6.371094 L 7.074219 11.371094 C 7.164062 11.597656 7.332031 11.785156 7.554688 11.894531 L 11.035156 13.636719 C 11.023438 13.742188 11 13.839844 11 13.953125 C 11 13.96875 11.003906 13.984375 11.003906 14 L 7 14 C 6.84375 14 6.691406 14.035156 6.554688 14.105469 L 2.554688 16.105469 C 2.058594 16.351562 1.859375 16.953125 2.105469 17.449219 C 2.351562 17.941406 2.953125 18.140625 3.449219 17.894531 L 7.238281 16 L 11.820312 16 C 11.984375 16.160156 12.171875 16.300781 12.386719 16.421875 L 6.726562 18.039062 C 6.394531 18.132812 6.132812 18.394531 6.039062 18.726562 L 4.039062 25.726562 C 3.929688 26.070312 4.015625 26.453125 4.265625 26.71875 C 4.515625 26.980469 4.890625 27.089844 5.242188 26.996094 C 5.597656 26.90625 5.871094 26.628906 5.960938 26.277344 L 7.808594 19.808594 L 10.648438 19 C 10.257812 19.597656 10 20.265625 10 21 C 10 23.699219 12 27 15 27 C 18 27 20 23.699219 20 21 C 20 20.265625 19.742188 19.597656 19.351562 19 L 22.191406 19.808594 L 24.039062 26.277344 C 24.128906 26.628906 24.402344 26.90625 24.757812 26.996094 C 25.109375 27.089844 25.484375 26.980469 25.734375 26.71875 C 25.984375 26.453125 26.070312 26.070312 25.960938 25.722656 L 23.960938 18.726562 C 23.867188 18.394531 23.605469 18.132812 23.277344 18.039062 L 17.660156 16.4375 C 17.871094 16.316406 18.066406 16.171875 18.238281 16 L 22.765625 16 L 26.554688 17.894531 C 26.871094 18.054688 27.253906 18.03125 27.550781 17.835938 C 27.847656 17.636719 28.019531 17.296875 28 16.941406 C 27.976562 16.582031 27.765625 16.265625 27.449219 16.105469 L 23.449219 14.105469 C 23.308594 14.035156 23.15625 14 23 14 L 19 14 C 19 13.984375 19 13.96875 19 13.949219 C 19 13.839844 18.976562 13.742188 18.96875 13.632812 L 22.449219 11.894531 C 22.667969 11.785156 22.835938 11.597656 22.929688 11.371094 L 24.929688 6.371094 C 25.058594 6.058594 25.019531 5.699219 24.828125 5.417969 C 24.632812 5.140625 24.3125 4.976562 23.972656 4.988281 C 23.570312 5.003906 23.214844 5.253906 23.074219 5.628906 L 21.214844 10.273438 L 18.03125 11.867188 C 17.339844 11.3125 16.316406 11 15 11 Z M 15 11 "/>
</g>
</svg>
