<?xml version="1.0" encoding="UTF-8"?>
<svg xmlns="http://www.w3.org/2000/svg" xmlns:xlink="http://www.w3.org/1999/xlink" viewBox="0 0 50 50" width="50px" height="50px">
<g id="surface1808131">
<path style=" stroke:none;fill-rule:nonzero;fill:rgb(100%,100%,100%);fill-opacity:1;" d="M 37.988281 20.59375 C 43.101562 20.292969 47.800781 18.238281 47.800781 15.921875 C 47.800781 14.761719 39.480469 6.90625 32.898438 6.90625 C 32.367188 5.296875 30.976562 4.253906 29.589844 4.527344 C 28.132812 4.820312 27.230469 6.460938 27.476562 8.265625 C 25.9375 8.554688 24.339844 8.488281 22.738281 8.296875 C 15.53125 7.445312 11.136719 11.316406 8.011719 15.464844 C 6.53125 17.425781 4.675781 22.429688 4.398438 26.675781 C 3.609375 27.675781 2.945312 28.808594 2.554688 30.054688 C 2.050781 31.597656 2 33.242188 2.292969 34.730469 C 2.921875 37.738281 4.816406 39.910156 6.820312 41.339844 C 8.863281 42.769531 11.105469 43.5625 13.3125 43.964844 C 15.472656 44.3125 17.648438 44.164062 19.816406 43.953125 C 23.878906 43.53125 27.804688 42.890625 31.722656 42.503906 C 33.613281 42.335938 35.523438 42.160156 37.402344 42.574219 C 38.265625 42.765625 39.066406 43.128906 39.535156 43.738281 C 40.035156 44.359375 40.226562 45.257812 39.914062 45.90625 C 39.777344 46.195312 39.890625 46.542969 40.175781 46.691406 C 40.464844 46.84375 40.824219 46.730469 40.976562 46.441406 C 41.59375 45.261719 41.277344 43.929688 40.648438 42.953125 C 39.96875 41.90625 38.855469 41.347656 37.820312 41.023438 C 35.835938 40.417969 33.699219 40.332031 31.636719 40.308594 C 27.601562 40.257812 23.601562 40.445312 19.707031 40.269531 C 17.894531 40.203125 16.078125 40.023438 14.332031 39.519531 C 12.671875 39.027344 11.136719 38.28125 10.03125 37.257812 C 9.574219 36.835938 9.207031 36.359375 8.9375 35.875 C 9.121094 35.957031 9.328125 36 9.539062 36 L 24.539062 36 C 24.792969 36 25 35.792969 25 35.539062 L 25 35.496094 C 25 34.117188 23.882812 33 22.503906 33 L 20.054688 33 C 21.160156 32.570312 21.855469 31.9375 22.269531 31.320312 C 22.691406 30.679688 23.570312 30.132812 24.457031 29.730469 L 27.636719 32.558594 C 28.554688 33.25 29.089844 34.296875 29.089844 35.410156 C 29.089844 35.734375 29.367188 36 29.707031 36 L 34.210938 36 C 34.464844 36 34.671875 35.792969 34.671875 35.535156 C 34.671875 34.6875 33.984375 34 33.136719 34 C 32.410156 34 31.785156 33.496094 31.632812 32.789062 L 30.648438 28.253906 C 31.859375 27.722656 32.800781 26.953125 33.535156 26.144531 L 35.136719 26.230469 C 36.027344 26.277344 36.714844 27.457031 37.207031 27.90625 C 37.777344 28.429688 38.714844 27.851562 38.753906 27.078125 L 38.609375 25.199219 C 38.492188 24.632812 37.671875 23.976562 37.191406 23.699219 L 35.636719 22.878906 C 35.671875 22.808594 35.707031 22.734375 35.734375 22.679688 C 36.15625 21.832031 36.542969 20.679688 37.988281 20.59375 Z M 37.988281 20.59375 "/>
</g>
</svg>
