<?xml version="1.0" encoding="UTF-8"?>
<svg xmlns="http://www.w3.org/2000/svg" xmlns:xlink="http://www.w3.org/1999/xlink" viewBox="0 0 50 50" width="50px" height="50px">
<g id="surface807080">
<path style=" stroke:none;fill-rule:nonzero;fill:rgb(100%,100%,100%);fill-opacity:1;" d="M 16 2 C 12.5 2 9.246094 4.558594 6.882812 8.621094 C 4.523438 12.6875 3 18.347656 3 25 C 2.996094 25.359375 3.183594 25.695312 3.496094 25.878906 C 3.808594 26.058594 4.191406 26.058594 4.503906 25.878906 C 4.816406 25.695312 5.003906 25.359375 5 25 C 5 18.652344 6.476562 13.3125 8.613281 9.628906 C 10.753906 5.941406 13.5 4 16 4 C 19.214844 4 20.847656 5.296875 21.824219 6.601562 C 22.359375 7.3125 22.652344 7.988281 22.816406 8.480469 C 21.71875 9.007812 21 9.929688 21 11 C 21 11.121094 21.007812 11.230469 21.027344 11.351562 C 22.210938 10.519531 23.601562 10 25 10 C 26.398438 10 27.789062 10.519531 28.96875 11.351562 C 28.992188 11.238281 29 11.121094 29 11 C 29 9.929688 28.28125 9.007812 27.179688 8.480469 C 27.347656 7.988281 27.640625 7.3125 28.175781 6.601562 C 29.152344 5.296875 30.785156 4 34 4 C 36.5 4 39.246094 5.941406 41.382812 9.628906 C 43.523438 13.3125 45 18.652344 45 25 C 44.996094 25.359375 45.183594 25.695312 45.496094 25.878906 C 45.808594 26.058594 46.191406 26.058594 46.503906 25.878906 C 46.816406 25.695312 47.003906 25.359375 47 25 C 47 18.347656 45.476562 12.6875 43.113281 8.621094 C 40.753906 4.558594 37.5 2 34 2 C 30.214844 2 27.847656 3.703125 26.574219 5.398438 C 25.832031 6.390625 25.445312 7.351562 25.234375 8.019531 C 25.15625 8.015625 25.082031 8 25 8 C 24.917969 8 24.84375 8.015625 24.761719 8.019531 C 24.554688 7.351562 24.167969 6.390625 23.425781 5.398438 C 22.152344 3.703125 19.785156 2 16 2 Z M 13.988281 10.988281 C 13.582031 10.992188 13.21875 11.238281 13.0625 11.613281 C 12.910156 11.992188 13 12.421875 13.292969 12.707031 C 13.308594 12.722656 13.496094 13.03125 13.613281 13.464844 C 13.730469 13.902344 13.820312 14.457031 13.878906 14.988281 C 14 16.046875 14 17 14 17 C 14 17.460938 14.3125 17.859375 14.757812 17.972656 L 18.234375 18.839844 C 19.027344 20.632812 21.800781 22 25 22 C 28.199219 22 30.972656 20.632812 31.765625 18.839844 L 35.242188 17.972656 C 35.6875 17.859375 36 17.460938 36 17 C 36 17 36 16.046875 36.121094 14.988281 C 36.179688 14.457031 36.269531 13.902344 36.386719 13.464844 C 36.503906 13.03125 36.691406 12.722656 36.707031 12.707031 C 37.003906 12.417969 37.089844 11.980469 36.929688 11.601562 C 36.769531 11.21875 36.394531 10.976562 35.980469 10.988281 C 35.71875 10.996094 35.472656 11.105469 35.292969 11.292969 C 34.808594 11.777344 34.621094 12.34375 34.457031 12.9375 C 34.292969 13.535156 34.195312 14.167969 34.132812 14.761719 C 34.046875 15.53125 34.058594 15.800781 34.046875 16.207031 L 31.847656 16.753906 C 31.140625 14.257812 28.046875 12 25 12 C 21.953125 12 18.859375 14.257812 18.152344 16.753906 L 15.953125 16.207031 C 15.941406 15.800781 15.953125 15.53125 15.871094 14.761719 C 15.804688 14.167969 15.707031 13.535156 15.542969 12.9375 C 15.378906 12.34375 15.191406 11.777344 14.707031 11.292969 C 14.519531 11.097656 14.261719 10.992188 13.992188 10.988281 Z M 32.460938 21.089844 C 32.179688 21.410156 31.851562 21.699219 31.492188 21.96875 C 30.019531 23.082031 28.070312 23.789062 26 23.960938 L 26 43.867188 C 28.839844 43.160156 31.167969 39.449219 32.285156 34.253906 L 35.988281 33.273438 C 36.03125 34.203125 36.117188 36.332031 36.402344 39.546875 C 36.574219 41.472656 36.789062 43.445312 37.0625 45.058594 C 37.199219 45.867188 37.347656 46.585938 37.527344 47.183594 C 37.703125 47.78125 37.828125 48.253906 38.304688 48.714844 C 38.558594 48.972656 38.929688 49.070312 39.277344 48.972656 C 39.625 48.878906 39.894531 48.601562 39.980469 48.25 C 40.066406 47.902344 39.960938 47.53125 39.699219 47.28125 C 39.800781 47.386719 39.582031 47.089844 39.445312 46.617188 C 39.304688 46.144531 39.160156 45.488281 39.035156 44.726562 C 38.777344 43.207031 38.5625 41.269531 38.394531 39.371094 C 38.058594 35.582031 37.90625 31.957031 37.90625 31.957031 C 37.882812 31.433594 37.457031 31.015625 36.933594 31 C 36.839844 30.996094 36.742188 31.007812 36.652344 31.03125 L 32.671875 32.082031 C 32.882812 30.554688 33 28.933594 33 27.238281 C 33 26.523438 32.972656 25.8125 32.933594 25.113281 L 37.28125 24.160156 C 37.460938 24.730469 37.695312 25.558594 38.417969 27.160156 C 39.34375 29.226562 40.585938 31.59375 42.445312 32.832031 C 42.742188 33.035156 43.128906 33.066406 43.453125 32.90625 C 43.777344 32.75 43.988281 32.429688 44.011719 32.066406 C 44.03125 31.707031 43.859375 31.363281 43.554688 31.167969 C 42.414062 30.40625 41.109375 28.273438 40.242188 26.339844 C 39.371094 24.40625 38.863281 22.710938 38.863281 22.710938 C 38.734375 22.28125 38.335938 21.992188 37.886719 22 C 37.820312 22 37.753906 22.007812 37.691406 22.023438 L 32.757812 23.101562 C 32.675781 22.421875 32.582031 21.746094 32.460938 21.089844 Z M 17.539062 21.097656 C 17.417969 21.75 17.328125 22.421875 17.246094 23.101562 L 12.308594 22.023438 C 12.242188 22.007812 12.175781 22 12.109375 22 C 11.664062 21.992188 11.265625 22.285156 11.136719 22.710938 C 11.136719 22.710938 10.628906 24.40625 9.757812 26.339844 C 8.890625 28.273438 7.585938 30.40625 6.445312 31.167969 C 6.140625 31.363281 5.96875 31.707031 5.988281 32.066406 C 6.011719 32.429688 6.222656 32.75 6.546875 32.90625 C 6.871094 33.066406 7.257812 33.035156 7.554688 32.832031 C 9.414062 31.59375 10.65625 29.226562 11.582031 27.160156 C 12.304688 25.558594 12.539062 24.730469 12.71875 24.160156 L 17.066406 25.113281 C 17.027344 25.816406 17 26.523438 17 27.242188 C 17 28.933594 17.117188 30.554688 17.328125 32.082031 L 13.347656 31.035156 C 13.253906 31.007812 13.152344 30.996094 13.050781 31 C 12.535156 31.023438 12.117188 31.4375 12.09375 31.957031 C 12.09375 31.957031 11.941406 35.582031 11.605469 39.375 C 11.4375 41.269531 11.222656 43.207031 10.964844 44.726562 C 10.839844 45.488281 10.695312 46.144531 10.554688 46.617188 C 10.417969 47.089844 10.199219 47.386719 10.300781 47.285156 C 10.039062 47.53125 9.933594 47.902344 10.019531 48.25 C 10.105469 48.601562 10.375 48.878906 10.722656 48.972656 C 11.070312 49.070312 11.441406 48.972656 11.699219 48.714844 C 12.171875 48.253906 12.296875 47.78125 12.476562 47.183594 C 12.652344 46.585938 12.800781 45.867188 12.9375 45.058594 C 13.210938 43.445312 13.425781 41.472656 13.597656 39.550781 C 13.882812 36.332031 13.96875 34.203125 14.011719 33.277344 L 17.71875 34.253906 C 18.832031 39.449219 21.160156 43.160156 24 43.871094 L 24 23.960938 C 21.929688 23.789062 19.980469 23.082031 18.519531 21.980469 C 18.160156 21.710938 17.828125 21.410156 17.539062 21.101562 Z M 17.539062 21.097656 "/>
</g>
</svg>
