<?xml version="1.0" encoding="UTF-8"?>
<svg xmlns="http://www.w3.org/2000/svg" xmlns:xlink="http://www.w3.org/1999/xlink" viewBox="0 0 60 60" width="60px" height="60px">
<g id="surface1914639">
<path style=" stroke:none;fill-rule:nonzero;fill:rgb(100%,100%,100%);fill-opacity:1;" d="M 42 8 C 40.859375 8 39.0625 8.207031 37.347656 9.40625 C 35.632812 10.605469 34.246094 12.917969 34.199219 16.109375 C 34.183594 17.1875 33.984375 17.714844 33.722656 18.101562 C 33.460938 18.488281 33.046875 18.824219 32.285156 19.214844 C 30.757812 19.992188 28.007812 20.734375 24.78125 22.457031 C 19.828125 25.097656 16.304688 28.722656 12.914062 31.492188 C 10.078125 33.808594 7.449219 35.503906 4.066406 36 L 4 36 C 3.789062 35.996094 3.582031 36.027344 3.382812 36.089844 C 2.933594 36.132812 2.476562 36.164062 1.996094 36.164062 C 1.273438 36.152344 0.605469 36.53125 0.242188 37.15625 C -0.125 37.777344 -0.125 38.550781 0.242188 39.171875 C 0.605469 39.796875 1.273438 40.175781 1.996094 40.164062 C 2.800781 40.164062 3.566406 40.097656 4.3125 40 L 19.738281 40 C 20.3125 40.214844 24.285156 41.644531 30 41.9375 L 30 49.664062 C 29.890625 50.3125 30.105469 50.976562 30.578125 51.433594 C 30.582031 51.4375 30.585938 51.441406 30.589844 51.445312 C 30.597656 51.453125 30.609375 51.464844 30.617188 51.472656 C 31.070312 51.90625 31.699219 52.101562 32.316406 52 L 38 52 C 38.722656 52.011719 39.390625 51.632812 39.753906 51.007812 C 40.121094 50.386719 40.121094 49.613281 39.753906 48.992188 C 39.390625 48.367188 38.722656 47.988281 38 48 L 34 48 L 34 41.875 C 37.328125 41.511719 40.789062 40.28125 43.707031 38.34375 C 47.214844 36.015625 50.0625 32.5 50.0625 28.148438 C 50.0625 24.675781 48.988281 22.152344 47.851562 20.539062 C 47.703125 20.328125 47.546875 20.167969 47.394531 19.984375 C 47.953125 19.460938 48.476562 18.808594 48.871094 18 L 56 18 C 56 15.789062 54.210938 14 52 14 L 49.410156 14 C 49.058594 11.953125 47.855469 10.371094 46.527344 9.457031 C 44.945312 8.371094 43.324219 8 42 8 Z M 42 12 C 42.371094 12 43.507812 12.234375 44.265625 12.753906 C 45.023438 13.273438 45.523438 13.847656 45.523438 15.210938 C 45.523438 17.34375 43.425781 17.9375 43.425781 17.9375 C 42.527344 18.207031 41.9375 19.0625 42.007812 20 C 42.074219 20.933594 42.785156 21.695312 43.710938 21.832031 C 43.929688 22.027344 44.230469 22.34375 44.582031 22.84375 C 45.292969 23.855469 46.0625 25.480469 46.0625 28.148438 C 46.0625 30.730469 44.304688 33.144531 41.496094 35.007812 C 38.742188 36.832031 35.109375 37.941406 32.1875 37.984375 C 32.113281 37.976562 32.042969 37.972656 31.96875 37.972656 C 31.890625 37.972656 31.808594 37.980469 31.730469 37.992188 C 25.40625 37.941406 20.726562 36.136719 20.726562 36.136719 C 20.496094 36.046875 20.25 36 20 36 L 13.554688 36 C 14.191406 35.539062 14.835938 35.082031 15.441406 34.589844 C 15.882812 34.230469 16.3125 33.855469 16.746094 33.484375 C 19.789062 33.457031 23.917969 34 30 34 C 35.699219 34 40.140625 31.0625 40.140625 26.234375 C 40.140625 22.785156 38.0625 21.195312 36.863281 20.558594 C 36.917969 20.484375 36.984375 20.421875 37.035156 20.34375 C 37.804688 19.210938 38.175781 17.78125 38.199219 16.164062 C 38.230469 13.964844 38.898438 13.203125 39.640625 12.683594 C 40.382812 12.164062 41.445312 12 42 12 Z M 42 12 "/>
</g>
</svg>
